<svg width="89" height="89" viewBox="0 0 89 89" fill="none" xmlns="http://www.w3.org/2000/svg">
<path fill-rule="evenodd" clip-rule="evenodd" d="M26.6624 1.23589C31.3235 1.02132 32.8096 0.973633 44.6827 0.973633C56.5558 0.973633 58.0419 1.02529 62.699 1.23589C67.3561 1.44649 70.5349 2.18955 73.3164 3.2664C76.2291 4.36708 78.8715 6.08765 81.057 8.31287C83.2822 10.4944 84.9988 13.1328 86.0955 16.0495C87.1764 18.831 87.9154 22.0099 88.13 26.659C88.3446 31.3279 88.3923 32.8141 88.3923 44.6832C88.3923 56.5563 88.3406 58.0424 88.13 62.7035C87.9194 67.3526 87.1764 70.5314 86.0955 73.313C84.9988 76.23 83.2794 78.8728 81.057 81.0575C78.8715 83.2827 76.2291 84.9993 73.3164 86.096C70.5349 87.1768 67.356 87.9159 62.7069 88.1305C58.0419 88.3451 56.5558 88.3928 44.6827 88.3928C32.8096 88.3928 31.3235 88.3411 26.6624 88.1305C22.0133 87.9199 18.8345 87.1768 16.0529 86.096C13.136 84.9992 10.4932 83.2798 8.3084 81.0575C6.0847 78.8747 4.36387 76.2331 3.26591 73.3169C2.18907 70.5354 1.44998 67.3565 1.2354 62.7074C1.02083 58.0385 0.973145 56.5523 0.973145 44.6832C0.973145 32.8101 1.0248 31.324 1.2354 26.6669C1.446 22.0099 2.18907 18.831 3.26591 16.0495C4.36549 13.1332 6.08764 10.4916 8.31238 8.30889C10.494 6.08567 13.1342 4.36487 16.049 3.2664C18.8305 2.18955 22.0094 1.45046 26.6585 1.23589H26.6624ZM62.3453 9.10361C57.736 8.89301 56.3532 8.8493 44.6827 8.8493C33.0123 8.8493 31.6294 8.89301 27.0201 9.10361C22.7564 9.29832 20.4438 10.0096 18.902 10.6096C16.8636 11.4043 15.4052 12.3461 13.8754 13.8759C12.4252 15.2867 11.3092 17.0042 10.6091 18.9025C10.0091 20.4443 9.29783 22.7569 9.10312 27.0206C8.89252 31.6299 8.84881 33.0127 8.84881 44.6832C8.84881 56.3537 8.89252 57.7365 9.10312 62.3458C9.29783 66.6095 10.0091 68.9221 10.6091 70.4639C11.3085 72.3593 12.4251 74.0799 13.8754 75.4905C15.286 76.9409 17.0066 78.0574 18.902 78.7568C20.4438 79.3568 22.7564 80.0681 27.0201 80.2628C31.6294 80.4734 33.0083 80.5171 44.6827 80.5171C56.3571 80.5171 57.736 80.4734 62.3453 80.2628C66.609 80.0681 68.9217 79.3568 70.4634 78.7568C72.5019 77.9621 73.9602 77.0203 75.49 75.4905C76.9404 74.0799 78.057 72.3593 78.7563 70.4639C79.3563 68.9221 80.0676 66.6095 80.2623 62.3458C80.4729 57.7365 80.5166 56.3537 80.5166 44.6832C80.5166 33.0127 80.4729 31.6299 80.2623 27.0206C80.0676 22.7569 79.3563 20.4443 78.7563 18.9025C77.9616 16.864 77.0198 15.4057 75.49 13.8759C74.0791 12.4258 72.3616 11.3098 70.4634 10.6096C68.9217 10.0096 66.609 9.29832 62.3453 9.10361ZM39.0998 58.1577C42.2177 59.4556 45.6895 59.6307 48.9223 58.6533C52.155 57.6758 54.9481 55.6063 56.8245 52.7982C58.7009 49.9902 59.5442 46.6178 59.2104 43.2571C58.8765 39.8964 57.3863 36.7558 54.9942 34.3717C53.4693 32.8477 51.6254 31.6808 49.5954 30.955C47.5654 30.2292 45.3997 29.9625 43.2542 30.1741C41.1087 30.3857 39.0368 31.0704 37.1877 32.1788C35.3386 33.2873 33.7583 34.7919 32.5605 36.5844C31.3627 38.3769 30.5772 40.4127 30.2606 42.5452C29.944 44.6778 30.1042 46.8539 30.7296 48.9171C31.355 50.9803 32.43 52.8792 33.8774 54.477C35.3247 56.0748 37.1083 57.3319 39.0998 58.1577ZM28.7963 28.7968C30.8825 26.7105 33.3592 25.0556 36.085 23.9266C38.8108 22.7975 41.7323 22.2164 44.6827 22.2164C47.6331 22.2164 50.5546 22.7975 53.2804 23.9266C56.0062 25.0556 58.4829 26.7105 60.5691 28.7968C62.6554 30.883 64.3103 33.3597 65.4393 36.0855C66.5684 38.8113 67.1495 41.7328 67.1495 44.6832C67.1495 47.6336 66.5684 50.5551 65.4393 53.2809C64.3103 56.0067 62.6554 58.4834 60.5691 60.5696C56.3558 64.783 50.6413 67.15 44.6827 67.15C38.7241 67.15 33.0096 64.783 28.7963 60.5696C24.5829 56.3563 22.2159 50.6418 22.2159 44.6832C22.2159 38.7246 24.5829 33.0101 28.7963 28.7968ZM72.1323 25.5623C72.6493 25.0746 73.0632 24.4881 73.3494 23.8376C73.6357 23.1871 73.7886 22.4858 73.7989 21.7751C73.8093 21.0645 73.6769 20.359 73.4098 19.7004C73.1426 19.0419 72.746 18.4436 72.2434 17.941C71.7409 17.4385 71.1426 17.0419 70.484 16.7747C69.8255 16.5075 69.12 16.3752 68.4093 16.3856C67.6987 16.3959 66.9974 16.5488 66.3469 16.835C65.6964 17.1213 65.1099 17.5352 64.6222 18.0522C63.6738 19.0576 63.1545 20.3931 63.1746 21.7751C63.1948 23.1572 63.7528 24.477 64.7301 25.4543C65.7075 26.4317 67.0273 26.9897 68.4093 27.0098C69.7914 27.03 71.1269 26.5107 72.1323 25.5623Z" fill="white"/>
</svg>
