<svg width="79" height="79" viewBox="0 0 79 79" fill="none" xmlns="http://www.w3.org/2000/svg">
<path d="M78.9871 20.1623C78.9871 17.733 78.7822 15.3137 78.202 12.9486C77.1602 8.64062 74.7038 5.34978 71.0278 2.93287C69.1367 1.6985 67.0556 0.940594 64.8436 0.540656C63.1449 0.243462 61.4255 0.0800228 59.7012 0.0518437C59.5728 0.0395 59.4321 0.0123437 59.2889 0H19.7124C19.2112 0.0395 18.71 0.0641875 18.2089 0.088875C15.7525 0.229594 13.3109 0.486344 10.9952 1.41212C6.59835 3.14766 3.42107 6.18175 1.56951 10.5539C0.927631 12.0327 0.604225 13.6003 0.374631 15.1952C0.182069 16.4814 0.0783814 17.7799 0.0413501 19.0785C0.0413501 19.1822 0.0166626 19.2834 0.0166626 19.3871V59.6203L0.0931939 61.0102C0.261069 63.6987 0.606694 66.36 1.73985 68.8287C3.87532 73.4971 7.46241 76.5683 12.3876 78.0471C13.7627 78.4717 15.2044 78.6642 16.6437 78.7926C18.4706 78.9728 20.295 78.9975 22.1219 78.9975H58.4322C60.1554 78.9975 61.8786 78.8815 63.6018 78.6642C66.315 78.3161 68.8602 77.5187 71.1636 76.0029C73.89 74.2367 76.0398 71.711 77.3478 68.7374C77.965 67.3475 78.3131 65.8712 78.5698 64.3776C78.9426 62.1532 79.0191 59.9017 79.0191 57.6527C79.0068 45.1534 79.0191 32.6566 79.0068 20.1573L78.9871 20.1623ZM57.8471 33.2886V52.0882C57.8471 53.4632 57.6546 54.8137 57.0374 56.0604C56.0869 58.0008 54.544 59.2228 52.4727 59.8153C51.3252 60.1442 50.1425 60.334 48.9498 60.3807C47.4499 60.4693 45.9698 60.0034 44.7913 59.0715C43.6127 58.1397 42.8179 56.807 42.5582 55.3271C42.3202 53.9957 42.5259 52.623 43.1436 51.4197C43.7613 50.2165 44.7568 49.2492 45.9774 48.6665C47.0315 48.153 48.177 47.8444 49.3201 47.6123C50.5668 47.3432 51.8135 47.0988 53.0479 46.8149C53.9613 46.61 54.5514 46.057 54.7316 45.1164C54.7834 44.9115 54.7958 44.6918 54.7958 44.4869V26.5637C54.7913 26.3592 54.7615 26.1561 54.7069 25.9589C54.5785 25.4577 54.2181 25.1615 53.7046 25.1862C53.1763 25.2109 52.6628 25.3022 52.1493 25.4059C49.641 25.8947 47.1352 26.3959 44.6393 26.9094L32.4634 29.3658C32.4116 29.3781 32.3474 29.4053 32.2956 29.4053C31.3821 29.662 31.0612 30.0743 31.0217 31.0248C31.0094 31.1655 31.0217 31.3087 31.0217 31.4494C31.0094 40.0135 31.0217 48.5776 31.0094 57.1392C31.0094 58.5291 30.8538 59.8919 30.3033 61.1756C29.3899 63.2839 27.7704 64.6096 25.5855 65.2392C24.4305 65.5754 23.2378 65.7653 22.0354 65.8045C18.8853 65.9206 16.261 63.8246 15.7229 60.7263C15.2587 58.0527 16.4808 55.1716 19.5149 53.8854C20.6974 53.3966 21.9194 53.1275 23.1661 52.8707L25.9953 52.2931C27.2544 52.024 27.9111 51.2266 27.9753 49.9403V49.4515V20.2117C27.9753 19.7994 28.0271 19.3896 28.116 18.9896C28.348 18.0515 29.0171 17.5108 29.9157 17.2911C30.7526 17.0714 31.6142 16.9183 32.461 16.7381C34.8779 16.2493 37.2824 15.7605 39.6994 15.284L47.1698 13.7657C49.3818 13.3288 51.579 12.8795 53.791 12.4425C54.5119 12.3018 55.2451 12.1462 55.9758 12.0944C56.9905 12.0055 57.699 12.6474 57.8027 13.6769C57.8274 13.9213 57.8422 14.1657 57.8422 14.4101V33.2738L57.8471 33.2886Z" fill="white"/>
</svg>
