<svg width="79" height="79" viewBox="0 0 79 79" fill="none" xmlns="http://www.w3.org/2000/svg">
<path d="M39.4835 0C17.7125 0 0 17.7158 0 39.4868C0 61.2777 17.7125 79 39.4835 79C61.2744 79 79 61.2744 79 39.4868C79 17.7158 61.2744 0 39.4835 0ZM19.4472 53.9965C23.968 52.6116 28.669 51.9039 33.3973 51.8964C41.3433 51.8964 49.1874 53.9109 56.0834 57.7227C56.4949 57.9465 56.8668 58.6838 57.038 59.6055C57.2026 60.5272 57.1367 61.4719 56.8668 61.9623C56.7396 62.1956 56.5674 62.4014 56.3601 62.5676C56.1528 62.7338 55.9146 62.8573 55.6592 62.9307C55.4039 63.0042 55.1365 63.0263 54.8725 62.9957C54.6086 62.965 54.3533 62.8823 54.1216 62.7523C49.0564 59.9736 43.4847 58.2406 37.737 57.6559C31.9893 57.0712 26.1828 57.6469 20.6618 59.3488C20.4083 59.4307 20.1411 59.4614 19.8757 59.4391C19.6102 59.4167 19.3519 59.3418 19.1157 59.2187C18.8795 59.0955 18.6702 58.9266 18.4999 58.7217C18.3296 58.5169 18.2018 58.2802 18.1239 58.0255C17.7717 56.8734 18.4992 54.3059 19.4472 53.9965ZM17.7256 39.4473C22.8328 38.0598 28.1017 37.357 33.394 37.3571C42.92 37.3571 52.377 39.6613 60.7477 44.026C61.3369 44.3223 61.7681 44.8292 61.9656 45.448C62.0655 45.7606 62.1017 46.0899 62.0724 46.4166C62.043 46.7434 61.9485 47.061 61.7945 47.3506C61.0473 48.8121 60.1717 49.7963 59.622 49.7963C59.2209 49.7946 58.8261 49.6975 58.4699 49.5133C50.7318 45.4734 42.1263 43.3788 33.3973 43.4105C28.5418 43.4008 23.7074 44.0485 19.0258 45.3361C18.7135 45.4215 18.3874 45.4445 18.0662 45.4039C17.745 45.3632 17.435 45.2597 17.1538 45.0993C16.8725 44.9388 16.6257 44.7245 16.4273 44.4686C16.2289 44.2128 16.0829 43.9203 15.9975 43.608C15.6288 42.2189 16.4748 39.7897 17.7256 39.4473ZM17.2812 29.9476C16.9108 30.0427 16.5251 30.0634 16.1465 30.0087C15.768 29.9539 15.404 29.8247 15.0756 29.6286C14.7472 29.4324 14.461 29.1732 14.2333 28.8658C14.0057 28.5584 13.8412 28.2089 13.7493 27.8376C13.3444 26.1984 14.3681 24.2958 15.856 23.9205C21.595 22.507 27.4834 21.7897 33.394 21.7843C44.7502 21.7843 55.6325 24.3386 65.7313 29.3781C66.4252 29.7231 66.9536 30.3296 67.2005 31.0641C67.4474 31.7986 67.3925 32.6011 67.048 33.2952C66.5772 34.2432 65.5568 35.2636 64.4311 35.2636C63.9896 35.262 63.5538 35.1643 63.1539 34.9773C53.9194 30.3447 43.7253 27.9475 33.394 27.9792C28.0121 27.9792 22.5907 28.6408 17.2812 29.9476Z" fill="white"/>
</svg>
