<svg width="91" height="91" viewBox="0 0 91 91" fill="none" xmlns="http://www.w3.org/2000/svg">
<path d="M82.5053 0.79629C82.5053 0.79629 90.8478 -3.10763 90.1499 6.37258C89.9202 10.2765 87.8351 23.9415 86.2116 38.7197L80.6499 82.5004C80.6499 82.5004 80.1861 88.9141 76.0137 90.0299C71.8435 91.1431 65.586 86.126 64.4264 85.0102C63.4988 84.1727 47.0455 71.6235 41.2519 65.4906C39.6285 63.8156 37.7731 60.4709 41.4838 56.567L65.8158 28.6803C68.5967 25.3356 71.3775 17.5278 59.7902 27.008L27.3433 53.498C27.3433 53.498 23.6347 56.2887 16.6837 53.7788L1.61761 48.2C1.61761 48.2 -3.94411 44.0177 5.55806 39.8355C28.7348 26.7297 57.2413 13.3455 82.501 0.79629H82.5053Z" fill="white"/>
</svg>
