<svg width="82" height="94" viewBox="0 0 82 94" fill="none" xmlns="http://www.w3.org/2000/svg">
<path d="M42.891 0.0783333C48.0219 0 53.1135 0.0391667 58.2052 0C58.5185 5.9925 60.6727 12.1025 65.0594 16.3325C69.446 20.68 75.6344 22.6775 81.666 23.3433V39.1275C76.026 38.9317 70.3469 37.7567 65.216 35.3283C62.9835 34.31 60.9077 33.0175 58.871 31.6858C58.8319 43.1225 58.9102 54.5592 58.7927 65.9567C58.4794 71.44 56.6777 76.8842 53.5052 81.3883C48.3744 88.9083 39.4835 93.8042 30.3577 93.9608C24.7569 94.2742 19.156 92.7467 14.3777 89.9267C6.46603 85.2658 0.904365 76.7275 0.081865 67.5625C0.00353163 65.6042 -0.035635 63.6458 0.0426983 61.7267C0.747698 54.285 4.42936 47.1567 10.1477 42.3C16.6494 36.66 25.736 33.9575 34.2352 35.5633C34.3135 41.36 34.0785 47.1567 34.0785 52.9533C30.201 51.7 25.6577 52.0525 22.2502 54.4025C19.7827 56.0083 17.9027 58.4758 16.9235 61.2567C16.101 63.2542 16.336 65.4475 16.3752 67.5625C17.3152 73.9858 23.5035 79.3908 30.0835 78.8033C34.4702 78.7642 38.661 76.2183 40.9327 72.4975C41.6769 71.205 42.4994 69.8733 42.5385 68.3458C42.9302 61.335 42.7735 54.3633 42.8127 47.3525C42.8519 31.5683 42.7735 15.8233 42.891 0.0783333Z" fill="#F8F8F8"/>
</svg>
