<svg width="95" height="75" viewBox="0 0 95 75" fill="none" xmlns="http://www.w3.org/2000/svg">
<path d="M37.6972 51.3061L63.3445 36.4267L37.6972 21.3723V51.3061ZM47.5042 0.00312461C53.441 0.00312461 59.1748 0.0926968 64.7053 0.271841C70.2359 0.450985 74.2906 0.639503 76.8694 0.837395L80.7376 1.08736C80.7729 1.08736 81.0697 1.11757 81.6282 1.17798C82.0929 1.2186 82.5103 1.28109 82.9222 1.36858L82.8498 1.35608C83.0984 1.41649 83.514 1.50606 84.0966 1.6248C84.6671 1.73416 85.1764 1.89976 85.6578 2.11849L85.6077 2.09974C86.0326 2.29763 86.5279 2.55593 87.0938 2.87464C87.7199 3.23085 88.2598 3.6183 88.7607 4.05262L88.7385 4.03387C89.3034 4.52756 89.8043 5.04312 90.2663 5.60243L90.2746 5.6118C90.5585 5.94613 90.8284 6.30546 91.0761 6.68042L91.0956 6.71166C91.6577 7.70529 92.1754 8.85514 92.59 10.0581L92.6318 10.1956C93.2997 11.9423 93.7922 13.967 94.026 16.0855L94.0371 16.1949C94.3191 18.7341 94.5418 21.4421 94.705 24.3188C94.8683 27.1956 94.9657 29.4453 94.9972 31.068V41.5417L95 42.3635C95 48.1534 94.6521 53.8558 93.9787 59.4394L94.0427 58.7895C93.822 60.8762 93.356 62.9208 92.6568 64.87L92.7069 64.7107C92.2872 66.0296 91.7066 67.2768 90.9815 68.4165L91.0093 68.3696L90.2691 69.3695C89.8046 69.9321 89.3001 70.4514 88.7607 70.9224L88.7329 70.9474C88.24 71.378 87.7073 71.7478 87.1439 72.0504L87.091 72.0754C86.5251 72.3732 86.0298 72.6232 85.6049 72.8253C85.1323 73.0395 84.6406 73.1966 84.1383 73.294L84.0938 73.3002C83.5113 73.4189 83.0873 73.5085 82.822 73.5689C82.5567 73.6293 82.1504 73.6887 81.6031 73.747C81.0558 73.8054 80.7645 73.8356 80.7293 73.8376C71.8704 74.6125 60.7972 75 47.5097 75C40.1944 74.9208 33.842 74.7917 28.4524 74.6125C23.0629 74.4334 19.5202 74.2845 17.8245 74.1657L15.2253 73.9158L13.3162 73.6658C12.283 73.526 11.2587 73.3131 10.2494 73.0284L10.422 73.069C9.45768 72.7351 8.52322 72.301 7.63072 71.7723L7.71978 71.8191C6.60397 71.2082 5.5916 70.3834 4.72815 69.382L4.72537 69.3788C4.43897 69.0414 4.1713 68.6845 3.9239 68.3102L3.90441 68.279C3.3111 67.2203 2.81062 66.0996 2.41 64.9325L2.36825 64.795C1.66171 62.9141 1.19243 60.9317 0.974016 58.9051L0.962885 58.7958C0.680884 56.2565 0.458252 53.5485 0.294988 50.6718C0.131724 47.7951 0.0343225 45.5454 0.0027829 43.9226V33.4489L0 32.6272C0 26.8373 0.347863 21.1349 1.02133 15.5512L0.957319 16.2011C1.17803 14.1144 1.64404 12.0698 2.34321 10.1206L2.29311 10.28C2.74394 8.88326 3.31722 7.67404 4.01851 6.57418L3.99068 6.62105L4.73094 5.62117C5.20125 5.05249 5.70217 4.53693 6.23927 4.06824L6.2671 4.04324C6.74576 3.62455 7.28286 3.24022 7.85336 2.91214L7.9118 2.88089C8.47765 2.56426 8.97301 2.30596 9.39787 2.10599C9.87053 1.89175 10.3622 1.73463 10.8645 1.6373L10.909 1.63105C11.4915 1.51231 11.9071 1.42274 12.1557 1.36233C12.4925 1.28734 12.9099 1.22485 13.3357 1.18735L13.3774 1.18423C13.9433 1.12382 14.2401 1.09361 14.268 1.09361C23.1417 0.364538 34.2232 0 47.5125 0L47.5042 0.00312461Z" fill="white"/>
</svg>
